<svg width="496" height="362" viewBox="0 0 496 362" fill="none" xmlns="http://www.w3.org/2000/svg">
<path d="M73.1534 297.636C73.1534 305.567 71.6501 312.314 68.6435 317.878C65.6605 323.441 61.5885 327.691 56.4276 330.626C51.2902 333.538 45.5137 334.994 39.098 334.994C32.6349 334.994 26.8348 333.527 21.6974 330.591C16.5601 327.655 12.5 323.406 9.51705 317.842C6.53409 312.279 5.04261 305.544 5.04261 297.636C5.04261 289.705 6.53409 282.958 9.51705 277.395C12.5 271.831 16.5601 267.594 21.6974 264.682C26.8348 261.746 32.6349 260.278 39.098 260.278C45.5137 260.278 51.2902 261.746 56.4276 264.682C61.5885 267.594 65.6605 271.831 68.6435 277.395C71.6501 282.958 73.1534 289.705 73.1534 297.636ZM57.5639 297.636C57.5639 292.499 56.7945 288.167 55.2557 284.639C53.7405 281.112 51.598 278.437 48.8281 276.614C46.0582 274.791 42.8149 273.879 39.098 273.879C35.3812 273.879 32.1378 274.791 29.3679 276.614C26.598 278.437 24.4437 281.112 22.9048 284.639C21.3897 288.167 20.6321 292.499 20.6321 297.636C20.6321 302.774 21.3897 307.106 22.9048 310.634C24.4437 314.161 26.598 316.836 29.3679 318.659C32.1378 320.482 35.3812 321.393 39.098 321.393C42.8149 321.393 46.0582 320.482 48.8281 318.659C51.598 316.836 53.7405 314.161 55.2557 310.634C56.7945 307.106 57.5639 302.774 57.5639 297.636ZM84.2596 354.455V279.455H99.1744V288.616H99.8491C100.512 287.149 101.471 285.657 102.725 284.142C104.004 282.603 105.661 281.325 107.697 280.307C109.757 279.265 112.314 278.744 115.368 278.744C119.345 278.744 123.014 279.786 126.376 281.869C129.738 283.929 132.425 287.042 134.437 291.209C136.449 295.352 137.456 300.548 137.456 306.798C137.456 312.883 136.473 318.02 134.508 322.21C132.567 326.377 129.915 329.537 126.554 331.692C123.216 333.822 119.475 334.888 115.332 334.888C112.396 334.888 109.899 334.402 107.839 333.432C105.803 332.461 104.134 331.242 102.832 329.774C101.53 328.283 100.536 326.779 99.8491 325.264H99.3874V354.455H84.2596ZM99.0678 306.727C99.0678 309.971 99.5176 312.8 100.417 315.214C101.317 317.629 102.619 319.511 104.324 320.861C106.028 322.187 108.1 322.849 110.538 322.849C113 322.849 115.083 322.175 116.788 320.825C118.493 319.452 119.783 317.558 120.659 315.143C121.558 312.705 122.008 309.9 122.008 306.727C122.008 303.579 121.57 300.809 120.694 298.418C119.818 296.027 118.528 294.156 116.824 292.807C115.119 291.457 113.024 290.783 110.538 290.783C108.076 290.783 105.993 291.434 104.288 292.736C102.607 294.038 101.317 295.884 100.417 298.276C99.5176 300.667 99.0678 303.484 99.0678 306.727ZM172.399 335.065C166.788 335.065 161.958 333.929 157.91 331.656C153.886 329.36 150.784 326.116 148.606 321.926C146.428 317.712 145.339 312.729 145.339 306.976C145.339 301.365 146.428 296.441 148.606 292.203C150.784 287.965 153.85 284.663 157.804 282.295C161.781 279.928 166.445 278.744 171.795 278.744C175.394 278.744 178.743 279.324 181.845 280.484C184.97 281.621 187.692 283.337 190.012 285.634C192.356 287.93 194.179 290.818 195.481 294.298C196.783 297.755 197.434 301.803 197.434 306.443V310.598H151.376V301.223H183.194C183.194 299.045 182.721 297.116 181.774 295.435C180.827 293.754 179.513 292.44 177.832 291.493C176.175 290.522 174.245 290.037 172.044 290.037C169.747 290.037 167.711 290.57 165.936 291.635C164.184 292.677 162.811 294.085 161.816 295.861C160.822 297.613 160.313 299.566 160.289 301.72V310.634C160.289 313.332 160.787 315.664 161.781 317.629C162.799 319.594 164.231 321.109 166.078 322.175C167.924 323.24 170.114 323.773 172.647 323.773C174.328 323.773 175.867 323.536 177.264 323.062C178.661 322.589 179.856 321.879 180.85 320.932C181.845 319.985 182.602 318.825 183.123 317.452L197.115 318.375C196.404 321.737 194.949 324.672 192.747 327.182C190.569 329.668 187.752 331.609 184.295 333.006C180.862 334.379 176.897 335.065 172.399 335.065ZM222.434 302.466V334H207.306V279.455H221.724V289.078H222.363C223.571 285.906 225.595 283.396 228.436 281.55C231.277 279.679 234.721 278.744 238.77 278.744C242.557 278.744 245.86 279.573 248.677 281.23C251.494 282.887 253.684 285.255 255.247 288.332C256.809 291.386 257.591 295.032 257.591 299.27V334H242.463V301.969C242.486 298.631 241.634 296.027 239.906 294.156C238.178 292.262 235.798 291.315 232.768 291.315C230.732 291.315 228.933 291.753 227.37 292.629C225.832 293.505 224.624 294.784 223.748 296.464C222.896 298.122 222.458 300.122 222.434 302.466ZM282.333 334H265.856L290.962 261.273H310.778L335.849 334H319.371L301.154 277.892H300.586L282.333 334ZM281.303 305.413H320.224V317.416H281.303V305.413ZM344.602 334V261.273H373.295C378.812 261.273 383.511 262.326 387.393 264.433C391.276 266.517 394.235 269.417 396.271 273.134C398.331 276.827 399.361 281.088 399.361 285.918C399.361 290.747 398.319 295.009 396.236 298.702C394.152 302.395 391.134 305.271 387.18 307.331C383.25 309.391 378.492 310.42 372.905 310.42H354.616V298.098H370.419C373.378 298.098 375.817 297.589 377.734 296.571C379.676 295.529 381.12 294.097 382.067 292.274C383.037 290.428 383.523 288.309 383.523 285.918C383.523 283.503 383.037 281.396 382.067 279.597C381.12 277.774 379.676 276.365 377.734 275.371C375.793 274.353 373.331 273.844 370.348 273.844H359.979V334H344.602ZM424.725 261.273V334H409.348V261.273H424.725ZM482.475 295.009L468.626 295.861C468.389 294.677 467.88 293.612 467.099 292.665C466.317 291.694 465.288 290.925 464.009 290.357C462.754 289.765 461.251 289.469 459.499 289.469C457.156 289.469 455.179 289.966 453.569 290.96C451.959 291.931 451.154 293.233 451.154 294.866C451.154 296.169 451.675 297.269 452.717 298.169C453.758 299.069 455.546 299.791 458.079 300.335L467.951 302.324C473.254 303.413 477.208 305.165 479.812 307.58C482.416 309.994 483.718 313.167 483.718 317.097C483.718 320.671 482.665 323.808 480.558 326.507C478.474 329.206 475.61 331.313 471.964 332.828C468.342 334.32 464.163 335.065 459.428 335.065C452.208 335.065 446.455 333.562 442.17 330.555C437.908 327.525 435.411 323.406 434.677 318.197L449.556 317.416C450.006 319.618 451.095 321.299 452.823 322.459C454.551 323.595 456.765 324.163 459.464 324.163C462.115 324.163 464.246 323.654 465.856 322.636C467.489 321.595 468.318 320.257 468.342 318.624C468.318 317.25 467.738 316.126 466.602 315.25C465.465 314.35 463.713 313.664 461.346 313.19L451.9 311.308C446.573 310.243 442.608 308.396 440.004 305.768C437.423 303.141 436.133 299.791 436.133 295.719C436.133 292.215 437.08 289.196 438.974 286.663C440.891 284.13 443.578 282.177 447.035 280.804C450.515 279.431 454.587 278.744 459.251 278.744C466.14 278.744 471.561 280.2 475.515 283.112C479.492 286.024 481.812 289.99 482.475 295.009Z" fill="black"/>
<path d="M360 99.4312C360 157.421 309.856 204.431 248 204.431C186.144 204.431 136 157.421 136 99.4312C136 41.4413 186.144 131.431 248 131.431C309.856 131.431 360 41.4413 360 99.4312Z" fill="#3687FF"/>
<path d="M176.472 67.4833C176.472 30.2133 208.707 0 248.472 0C288.236 0 320.472 30.2133 320.472 67.4833C320.472 104.753 288.236 46.917 248.472 46.917C208.707 46.917 176.472 104.753 176.472 67.4833Z" fill="#3687FF"/>
</svg>
